<?xml version="1.0" standalone="no"?>
<!DOCTYPE svg PUBLIC "-//W3C//DTD SVG 20010904//EN"
 "http://www.w3.org/TR/2001/REC-SVG-20010904/DTD/svg10.dtd">
<svg version="1.0" xmlns="http://www.w3.org/2000/svg"
 width="1001.000000pt" height="143.000000pt" viewBox="0 0 1001.000000 143.000000"
 preserveAspectRatio="xMidYMid meet">

<g transform="translate(0.000000,143.000000) scale(0.100000,-0.100000)"
fill="#000000" stroke="none">
<path d="M4519 1355 c-55 -30 -58 -108 -6 -151 60 -51 147 -6 147 76 0 70 -76
110 -141 75z"/>
<path d="M3735 1339 c-27 -5 -60 -12 -72 -14 l-23 -5 0 -460 0 -460 85 0 85 0
0 208 c0 119 5 224 11 247 29 102 167 156 255 99 49 -32 54 -64 54 -318 l0
-236 86 0 85 0 -3 268 c-3 258 -4 268 -27 312 -32 62 -57 87 -116 118 -43 23
-62 27 -140 27 -91 0 -128 -11 -182 -51 l-23 -16 0 146 c0 111 -3 146 -12 145
-7 -1 -35 -5 -63 -10z"/>
<path d="M60 860 l0 -462 243 4 c278 5 318 14 428 94 121 90 175 217 167 397
-4 89 -9 113 -35 169 -52 112 -127 179 -250 226 -65 25 -79 26 -310 30 l-243
4 0 -462z m472 280 c78 -24 137 -72 169 -137 19 -39 23 -65 24 -139 0 -81 -3
-96 -30 -149 -57 -112 -155 -155 -352 -155 l-113 0 0 80 0 80 113 0 c87 0 120
4 146 18 53 27 76 65 75 125 -1 106 -52 137 -224 137 l-110 0 0 80 0 80 119 0
c90 0 134 -5 183 -20z"/>
<path d="M8045 1166 c-27 -13 -58 -32 -67 -42 -27 -31 -48 -89 -48 -134 0 -95
52 -150 228 -239 131 -67 155 -91 155 -154 0 -102 -127 -159 -242 -106 -25 11
-63 40 -86 64 l-41 45 -32 -23 c-17 -12 -32 -26 -32 -30 0 -5 26 -35 58 -66
67 -67 133 -95 227 -96 144 0 245 92 245 225 0 48 -31 110 -69 143 -18 15 -85
54 -150 87 -141 72 -166 95 -166 155 0 49 22 80 72 101 66 28 157 4 212 -55
l28 -30 33 28 34 28 -45 45 c-80 79 -212 102 -314 54z"/>
<path d="M6800 790 l0 -390 25 0 25 0 0 390 0 390 -25 0 -25 0 0 -390z"/>
<path d="M7300 791 l0 -391 50 0 50 0 0 159 0 158 118 6 c127 6 169 16 220 54
51 38 76 96 77 178 0 90 -32 151 -103 192 -46 27 -51 28 -229 31 l-183 4 0
-391z m347 290 c51 -24 75 -66 75 -133 0 -55 -19 -90 -65 -118 -27 -17 -51
-20 -144 -20 l-113 0 0 145 0 145 103 0 c78 0 112 -5 144 -19z"/>
<path d="M8570 790 l0 -390 225 0 225 0 0 40 0 40 -180 0 -180 0 0 350 0 350
-45 0 -45 0 0 -390z"/>
<path d="M9170 785 l0 -395 390 0 390 0 0 395 0 395 -390 0 -390 0 0 -395z
m767 250 l3 -130 -25 50 c-14 28 -36 64 -49 80 l-25 30 47 50 47 50 -45 -43
c-25 -23 -49 -42 -53 -42 -4 0 -31 15 -60 34 -28 19 -65 38 -82 42 -19 4 -7
-5 31 -25 33 -17 69 -40 79 -51 18 -20 18 -21 -14 -54 -20 -21 -47 -37 -69
-41 -20 -4 -49 -13 -64 -21 l-27 -14 -33 105 c-18 57 -35 105 -38 105 -3 0
-23 -56 -44 -125 -28 -90 -44 -125 -55 -125 -16 0 -161 138 -161 154 0 13 29
34 95 67 38 20 49 28 30 24 -36 -8 -106 -47 -125 -70 -12 -14 -19 -11 -64 32
l-51 48 43 -45 c23 -25 42 -49 42 -54 0 -4 -11 -22 -24 -39 -14 -18 -34 -53
-45 -77 l-21 -45 0 126 c0 69 3 128 6 132 4 3 173 5 378 4 l371 -2 2 -130z
m-572 -55 l69 -70 -117 0 c-92 0 -117 3 -117 14 0 19 72 126 85 126 6 0 42
-31 80 -70z m492 48 c24 -27 67 -108 60 -115 -3 -2 -17 7 -31 20 -24 23 -46
34 -100 51 -18 6 -17 9 9 36 34 36 36 36 62 8z m-152 -88 c-30 -31 -65 -40
-65 -16 0 18 22 36 57 45 39 11 41 5 8 -29z m136 14 c14 -7 31 -20 38 -28 12
-14 3 -16 -90 -16 l-103 0 34 35 c37 38 61 40 121 9z m-241 -61 c-66 -104 -20
-237 96 -278 22 -8 32 -14 24 -15 -12 0 -11 -4 3 -15 11 -7 24 -12 31 -9 6 2
25 -9 41 -26 28 -29 28 -31 11 -48 -17 -16 -19 -16 -29 2 -26 42 -72 88 -106
105 -38 19 -101 36 -101 27 0 -3 45 -38 100 -77 55 -40 100 -77 100 -82 0 -4
-26 -20 -57 -34 -103 -47 -251 -40 -344 16 l-30 19 105 77 c58 43 106 80 106
82 0 8 -65 -9 -101 -27 -34 -18 -102 -85 -110 -109 -5 -15 -39 -3 -39 13 0 16
58 71 66 63 4 -3 26 7 49 23 50 35 123 55 170 47 l34 -6 -26 41 c-48 72 -42
176 15 241 26 29 23 19 -8 -30z m-334 -38 c35 -25 66 -50 69 -55 4 -6 -24 -10
-74 -10 l-81 0 0 33 c0 35 10 77 17 77 3 0 34 -20 69 -45z m663 4 c23 -66 20
-69 -69 -69 -44 0 -80 3 -79 8 0 10 111 90 126 91 6 1 16 -13 22 -30z m-531
-99 l24 -20 -21 -62 c-20 -60 -89 -148 -116 -148 -11 0 -69 82 -84 120 -5 14
-10 18 -10 10 -1 -19 52 -112 74 -130 14 -12 11 -18 -32 -64 l-48 -51 45 43
c25 23 49 42 54 42 4 0 22 -11 39 -24 18 -13 57 -36 87 -49 l55 -25 -137 -1
c-125 -1 -137 1 -143 18 -3 10 -5 95 -4 190 l2 171 96 0 c80 -1 100 -4 119
-20z m542 5 c0 -30 -40 -94 -75 -121 -21 -16 -53 -28 -79 -31 l-44 -5 -22 66
-22 66 24 20 c19 16 39 19 121 20 81 0 97 -3 97 -15z m0 -217 c0 -64 -3 -123
-6 -132 -5 -14 -27 -16 -141 -16 -126 0 -161 9 -96 24 16 4 52 23 80 42 29 19
56 34 60 34 4 0 28 -19 53 -42 l45 -43 -47 50 -47 50 25 30 c29 35 49 70 58
105 4 14 -5 3 -19 -25 -15 -27 -37 -61 -50 -75 l-25 -24 -30 29 c-36 34 -38
45 -8 45 29 0 105 46 119 72 20 37 29 0 29 -124z"/>
<path d="M1252 1110 c-82 -27 -156 -88 -198 -165 -110 -198 -35 -440 164 -533
49 -23 70 -27 152 -27 87 0 102 3 158 31 l62 31 0 -24 c0 -22 3 -23 85 -23
l85 0 0 355 0 355 -85 0 c-82 0 -85 -1 -85 -23 l0 -24 -59 30 c-80 39 -189 46
-279 17z m243 -163 c71 -39 112 -129 101 -221 -11 -100 -72 -168 -166 -187
-79 -17 -132 0 -191 60 -179 180 33 469 256 348z"/>
<path d="M3047 1120 c-20 -5 -55 -19 -77 -30 -48 -25 -50 -25 -50 0 0 18 -7
20 -85 20 l-85 0 0 -525 0 -525 85 0 85 0 0 194 0 195 62 -32 c56 -29 69 -32
157 -32 84 0 103 3 157 28 77 36 145 104 181 182 25 53 28 71 28 160 0 93 -2
105 -32 166 -62 126 -172 198 -311 205 -42 2 -94 -1 -115 -6z m195 -172 c134
-76 137 -299 5 -386 -34 -23 -51 -27 -106 -27 -96 1 -162 40 -203 118 -27 53
-26 151 1 206 54 105 198 147 303 89z"/>
<path d="M5126 1115 c-22 -8 -52 -23 -68 -35 l-28 -21 0 26 c0 25 -1 25 -85
25 l-85 0 0 -355 0 -355 85 0 85 0 0 225 c0 205 2 229 20 264 54 107 217 119
275 21 18 -32 20 -55 23 -272 l4 -238 84 0 84 0 0 213 c0 306 -15 374 -99 450
-68 61 -203 85 -295 52z"/>
<path d="M5898 1111 c-73 -24 -116 -51 -168 -107 -51 -55 -78 -113 -88 -190
-31 -236 116 -417 351 -431 98 -6 204 10 267 40 l45 22 3 78 c2 42 -1 77 -6
77 -5 0 -34 -11 -63 -24 -144 -66 -311 -55 -386 26 -19 20 -53 86 -53 103 0 3
122 5 271 5 l271 0 -4 93 c-3 81 -8 99 -38 156 -78 145 -236 205 -402 152z
m196 -149 c35 -21 76 -76 76 -103 0 -18 -11 -19 -180 -19 -144 0 -180 3 -180
13 0 21 56 94 82 108 60 32 148 33 202 1z"/>
<path d="M1932 853 c5 -290 11 -322 75 -388 63 -65 110 -80 248 -80 104 0 127
3 170 23 65 30 98 63 127 126 22 49 23 64 26 314 l3 262 -85 0 -86 0 0 -237
c0 -220 -2 -240 -20 -271 -56 -92 -199 -98 -261 -11 -24 33 -24 39 -27 277
l-3 242 -86 0 -85 0 4 -257z"/>
<path d="M4490 755 l0 -355 85 0 85 0 0 355 0 355 -85 0 -85 0 0 -355z"/>
<path d="M5322 338 c-17 -17 -15 -28 7 -28 27 0 46 26 25 34 -20 8 -18 8 -32
-6z"/>
<path d="M3640 223 c0 -83 15 -139 40 -153 30 -16 86 -12 111 9 22 17 24 29
27 115 l4 96 -26 0 c-26 0 -26 0 -26 -83 0 -85 -8 -107 -42 -107 -27 0 -38 32
-38 114 0 74 -1 76 -25 76 -24 0 -25 -2 -25 -67z"/>
<path d="M3860 175 l0 -115 25 0 c24 0 25 2 25 67 l0 68 45 -68 c31 -45 52
-67 65 -67 19 0 20 7 20 115 l0 115 -25 0 c-24 0 -25 -3 -25 -62 l0 -63 -41
63 c-32 47 -47 62 -65 62 -24 0 -24 -1 -24 -115z"/>
<path d="M4090 175 l0 -115 25 0 25 0 0 115 0 115 -25 0 -25 0 0 -115z"/>
<path d="M4170 283 c0 -5 16 -56 36 -115 32 -96 38 -108 59 -108 21 0 27 12
59 108 20 59 36 110 36 115 0 4 -11 7 -23 7 -21 0 -27 -9 -47 -77 l-23 -78
-25 78 c-23 66 -29 77 -49 77 -13 0 -23 -3 -23 -7z"/>
<path d="M4390 175 l0 -115 75 0 c68 0 75 2 75 20 0 17 -7 20 -50 20 -47 0
-50 2 -50 25 0 23 4 25 45 25 41 0 45 2 45 25 0 23 -4 25 -45 25 -41 0 -45 2
-45 25 0 23 3 25 50 25 43 0 50 3 50 20 0 18 -7 20 -75 20 l-75 0 0 -115z"/>
<path d="M4580 175 l0 -115 25 0 c23 0 25 4 25 40 0 22 4 40 10 40 5 0 22 -18
36 -40 19 -28 34 -40 50 -40 29 0 29 0 3 44 l-21 36 21 26 c28 35 27 69 -4 99
-20 21 -34 25 -85 25 l-60 0 0 -115z m113 54 c16 -26 1 -49 -33 -49 -28 0 -30
3 -30 36 0 32 2 35 26 32 15 -2 32 -10 37 -19z"/>
<path d="M4802 274 c-18 -12 -22 -24 -20 -52 3 -33 9 -40 50 -62 27 -14 48
-31 48 -38 0 -19 -28 -26 -57 -13 -19 9 -29 9 -39 0 -20 -16 -17 -24 11 -37
83 -38 162 18 126 87 -6 10 -28 26 -50 36 -41 18 -53 41 -27 51 8 3 24 0 36
-6 18 -10 24 -8 35 7 12 16 11 20 -8 30 -31 17 -79 16 -105 -3z"/>
<path d="M4970 175 l0 -115 25 0 25 0 0 115 0 115 -25 0 -25 0 0 -115z"/>
<path d="M5050 271 c0 -14 8 -21 28 -23 l27 -3 3 -92 c2 -84 5 -93 22 -93 17
0 20 9 22 93 l3 92 28 3 c19 2 27 9 27 23 0 17 -8 19 -80 19 -72 0 -80 -2 -80
-19z"/>
<path d="M5240 175 l0 -115 75 0 c68 0 75 2 75 20 0 17 -7 20 -50 20 -47 0
-50 2 -50 25 0 23 4 25 45 25 41 0 45 2 45 25 0 23 -4 25 -45 25 -41 0 -45 2
-45 25 0 23 3 25 50 25 43 0 50 3 50 20 0 18 -7 20 -75 20 l-75 0 0 -115z"/>
<path d="M5500 175 l0 -115 25 0 c22 0 25 4 25 35 0 32 3 35 29 35 45 0 81 35
81 78 0 20 -4 42 -8 48 -14 22 -51 34 -101 34 l-51 0 0 -115z m104 59 c9 -8
16 -19 16 -24 0 -16 -31 -40 -51 -40 -16 0 -19 7 -19 40 0 33 3 40 19 40 11 0
27 -7 35 -16z"/>
<path d="M5726 248 c-9 -24 -27 -74 -41 -112 -14 -37 -25 -70 -25 -72 0 -2 11
-4 25 -4 18 0 26 7 31 25 5 21 12 25 45 25 33 0 41 -4 49 -25 7 -17 17 -25 34
-25 l25 0 -40 110 c-21 61 -39 113 -39 115 0 3 -11 5 -24 5 -19 0 -27 -9 -40
-42z m42 -96 c-28 -5 -30 0 -16 39 l11 33 12 -34 c11 -32 10 -35 -7 -38z"/>
<path d="M5900 175 c0 -107 1 -115 19 -115 16 0 20 8 23 38 4 49 27 49 53 0
16 -30 26 -38 48 -38 l28 0 -22 40 c-21 37 -21 41 -6 58 10 11 17 35 17 60 0
54 -25 72 -102 72 l-58 0 0 -115z m106 61 c26 -20 8 -50 -35 -54 -28 -3 -31
-1 -31 26 0 16 3 32 7 35 11 11 38 8 59 -7z"/>
<path d="M6100 175 l0 -115 25 0 25 0 0 115 0 115 -25 0 -25 0 0 -115z"/>
<path d="M6217 278 c-45 -35 -25 -92 43 -126 19 -9 35 -24 35 -32 0 -19 -41
-25 -60 -10 -18 15 -45 6 -45 -14 0 -21 32 -36 78 -36 47 0 72 23 72 67 0 33
-12 46 -62 72 -18 9 -34 22 -36 28 -6 19 28 28 51 14 16 -11 22 -10 36 4 15
15 15 17 -3 31 -24 17 -86 18 -109 2z"/>
</g>
</svg>
