<?xml version="1.0" standalone="no"?>
<!DOCTYPE svg PUBLIC "-//W3C//DTD SVG 20010904//EN"
 "http://www.w3.org/TR/2001/REC-SVG-20010904/DTD/svg10.dtd">
<svg version="1.0" xmlns="http://www.w3.org/2000/svg"
 width="2644.000000pt" height="984.000000pt" viewBox="0 0 2644.000000 984.000000"
 preserveAspectRatio="xMidYMid meet">

<g transform="translate(0.000000,984.000000) scale(0.100000,-0.100000)"
fill="#000000" stroke="none">
<path d="M4260 9834 c-19 -2 -78 -9 -130 -15 -603 -68 -1247 -353 -1601 -708
-141 -142 -230 -274 -279 -416 l-20 -58 98 -115 c53 -63 108 -128 121 -144
l24 -30 -46 7 c-27 4 -60 2 -80 -4 -52 -18 -103 -75 -117 -130 -19 -79 7 -162
120 -386 90 -178 125 -273 106 -292 -3 -3 -14 2 -25 11 -29 26 -82 18 -100
-15 -22 -39 0 -106 39 -123 29 -12 29 -12 10 -29 -11 -9 -20 -25 -20 -34 0
-10 33 -50 74 -90 l73 -72 -5 -1630 c-4 -1362 -7 -1631 -18 -1631 -11 0 -14
-28 -14 -135 l0 -135 -1007 0 c-780 0 -1013 -3 -1032 -13 -30 -15 -58 -53 -67
-89 l-6 -28 4076 0 4076 0 0 20 c0 12 -7 34 -15 50 -33 63 24 60 -1080 60
l-1005 0 0 135 c0 128 -1 135 -20 135 -20 0 -20 7 -20 1633 l0 1634 70 67 c76
72 87 103 48 130 -19 14 -20 16 -5 16 10 0 29 11 42 25 31 30 34 93 7 118 -24
22 -70 22 -94 1 -16 -15 -18 -15 -23 -1 -11 28 17 102 106 277 129 252 151
336 110 426 -10 23 -36 54 -57 70 -32 25 -47 29 -107 31 -38 1 -71 3 -72 5 -2
2 51 66 117 143 65 77 122 145 124 152 9 20 -58 164 -117 252 -244 366 -761
678 -1385 837 -241 61 -409 84 -644 89 -107 2 -211 1 -230 -1z m460 -130 c780
-90 1542 -501 1756 -948 l33 -69 -51 -61 c-28 -34 -78 -94 -112 -133 l-61 -73
-1860 1 -1860 0 -80 96 c-44 52 -90 107 -102 123 l-22 27 34 71 c231 482 1006
894 1835 975 101 10 370 5 490 -9z m1210 -1569 c0 -158 1 -165 20 -165 20 0
20 -7 20 -2020 0 -2013 0 -2020 -20 -2020 -19 0 -20 -7 -20 -135 l0 -135
-1490 0 -1490 0 0 135 c0 128 -1 135 -20 135 -20 0 -20 7 -20 2019 0 2010 0
2019 20 2024 19 5 20 14 20 166 l0 161 1490 0 1490 0 0 -165z m-3090 30 l0
-95 -135 0 -135 0 0 95 0 95 135 0 135 0 0 -95z m3468 -2 l3 -93 -141 0 -140
0 0 88 c0 49 3 92 7 96 4 3 66 5 137 4 l131 -3 3 -92z m-3528 -558 l0 -365
-75 0 -75 0 0 365 0 365 75 0 75 0 0 -365z m3460 0 l0 -365 -70 0 -70 0 0 365
0 365 70 0 70 0 0 -365z m-3450 -2075 l0 -1600 -85 0 -85 0 0 1600 0 1600 85
0 85 0 0 -1600z m3460 0 l0 -1600 -80 0 -80 0 0 1600 0 1600 80 0 80 0 0
-1600z m-3410 -1790 l0 -90 -135 0 -135 0 0 90 0 90 135 0 135 0 0 -90z m3470
0 l0 -90 -140 0 -140 0 0 90 0 90 140 0 140 0 0 -90z"/>
<path d="M4275 9564 c-312 -32 -567 -93 -831 -199 -260 -104 -456 -226 -605
-374 -130 -131 -195 -243 -214 -376 l-7 -45 1830 0 1830 0 -14 63 c-48 205
-225 391 -554 581 -267 153 -602 270 -935 327 -116 19 -405 33 -500 23z m335
-75 c461 -47 962 -275 1241 -565 74 -77 159 -205 159 -239 0 -3 -704 -5 -1565
-5 -1135 0 -1565 3 -1565 11 0 6 16 42 36 79 199 379 903 719 1510 729 45 0
128 -4 184 -10z"/>
<path d="M4515 9311 c-104 -46 -129 -229 -40 -299 34 -27 79 -28 129 -2 l38
19 -6 -32 c-13 -66 -84 -142 -150 -164 -17 -5 -32 -15 -34 -22 -4 -11 4 -12
34 -7 177 32 296 230 239 398 -9 25 -31 60 -50 78 -29 28 -43 34 -87 37 -29 1
-62 -1 -73 -6z m87 -32 c28 -15 58 -86 58 -140 0 -137 -145 -131 -166 6 -16
110 35 173 108 134z"/>
<path d="M4115 9301 c-38 -6 -39 -7 -53 -64 -11 -42 -11 -62 -4 -69 8 -8 14
-4 21 15 14 37 40 47 125 47 59 0 76 -3 76 -14 0 -23 -33 -94 -88 -190 -70
-121 -91 -233 -47 -249 8 -4 27 -2 42 4 27 9 28 11 29 92 0 73 6 96 48 207 26
69 50 149 53 178 l6 52 -84 -1 c-46 -1 -102 -5 -124 -8z"/>
<path d="M3875 9280 c-11 -12 -44 -33 -72 -46 -29 -12 -53 -28 -53 -35 0 -7 7
-8 18 -4 47 20 47 21 50 -168 l2 -179 -30 -11 c-16 -6 -30 -15 -30 -19 0 -12
208 -10 215 2 4 6 -7 13 -24 16 -17 4 -35 12 -41 18 -5 8 -11 104 -12 230 l-3
218 -20 -22z"/>
<path d="M5009 9258 c-48 -51 -111 -136 -168 -222 -64 -99 -61 -106 55 -106
l84 0 0 -80 c0 -86 3 -90 54 -70 24 9 26 14 26 74 0 62 1 64 29 69 24 5 29 12
35 48 8 50 3 58 -23 35 -35 -32 -41 -12 -41 140 0 94 -4 144 -11 144 -5 0 -24
-15 -40 -32z m-29 -173 l0 -85 -60 0 c-33 0 -60 3 -60 6 0 10 110 164 117 164
2 0 3 -38 3 -85z"/>
<path d="M3210 5980 l0 -2040 1230 0 1230 0 0 2040 0 2040 -1230 0 -1230 0 0
-2040z m2186 1923 c-2 -5 -137 -71 -300 -148 l-296 -140 0 -1641 0 -1642 301
-133 301 -134 -481 -3 c-265 -1 -698 -1 -964 0 l-482 3 303 135 302 134 -2
1640 -3 1640 -298 142 c-163 77 -300 144 -304 147 -3 4 429 7 961 7 532 0 965
-3 962 -7z m-1740 -207 l309 -144 3 -515 2 -515 -157 49 c-87 26 -230 70 -318
97 l-160 50 -3 561 c-1 308 2 561 6 561 4 0 147 -65 318 -144z m1892 -418 l-3
-562 -300 -93 c-165 -50 -310 -94 -322 -98 l-23 -5 0 513 0 514 313 146 c171
80 318 146 325 146 10 1 12 -114 10 -561z m-1883 -762 l300 -92 3 -476 c2
-448 1 -477 -15 -482 -10 -2 -151 -46 -314 -95 -163 -50 -299 -91 -303 -91 -3
0 -6 299 -6 665 0 627 1 665 18 664 9 0 152 -42 317 -93z m1885 -576 c0 -368
-1 -670 -2 -670 -2 0 -147 44 -323 98 l-320 98 -3 477 -2 476 37 10 c21 6 160
49 308 95 149 46 278 85 288 85 16 1 17 -37 17 -669z m-1580 -1047 l0 -478
-311 -135 c-171 -74 -315 -136 -320 -138 -5 -2 -9 202 -9 515 l0 519 313 96
c171 53 315 97 320 97 4 1 7 -214 7 -476z m1233 381 c155 -47 297 -90 315 -95
l32 -11 0 -514 c0 -486 -1 -515 -17 -510 -10 3 -155 66 -323 140 l-305 134 -3
471 c-1 339 1 471 9 471 6 0 138 -38 292 -86z"/>
<path d="M17416 6929 c-401 -35 -762 -261 -915 -573 -69 -139 -93 -239 -98
-407 -4 -113 -2 -165 12 -230 39 -194 120 -337 279 -494 159 -158 282 -233
781 -481 575 -285 695 -366 782 -530 112 -210 71 -506 -95 -686 -232 -252
-690 -311 -1060 -138 -213 100 -411 277 -562 502 -25 37 -49 68 -53 68 -14 0
-322 -241 -325 -254 -2 -8 28 -60 67 -117 210 -312 483 -526 819 -643 174 -60
300 -80 507 -80 126 0 208 5 272 17 184 34 369 107 508 200 79 53 206 177 261
253 142 198 214 483 186 732 -16 137 -34 207 -83 310 -95 204 -264 373 -538
539 -58 35 -273 148 -477 249 -440 219 -551 283 -644 370 -124 118 -171 222
-173 384 -1 115 14 183 62 275 88 169 274 279 514 304 272 28 533 -56 756
-242 58 -49 126 -125 203 -229 12 -16 28 -5 173 107 88 69 161 129 163 134 6
17 -123 179 -215 268 -232 228 -525 362 -858 393 -119 11 -119 11 -249 -1z"/>
<path d="M10970 4900 l0 -1970 55 0 55 0 0 1970 0 1970 -55 0 -55 0 0 -1970z"/>
<path d="M13290 4901 l0 -1971 225 0 225 0 2 823 3 822 565 6 c479 5 576 8
635 23 436 104 718 345 844 722 43 127 61 246 61 399 0 205 -34 366 -109 523
-152 314 -410 506 -799 594 -95 21 -117 22 -874 25 l-778 4 0 -1970z m1499
1538 c224 -36 408 -157 505 -332 117 -211 122 -521 14 -743 -89 -182 -253
-302 -478 -351 -76 -16 -139 -18 -585 -18 l-500 0 -3 728 -2 727 492 0 c295 0
519 -4 557 -11z"/>
<path d="M19590 4900 l0 -1970 1130 0 1130 0 0 205 0 205 -905 0 -905 0 0
1765 0 1765 -225 0 -225 0 0 -1970z"/>
<path d="M22530 4900 l0 -1970 1955 0 1955 0 0 1970 0 1970 -1955 0 -1955 0 0
-1970z m1659 1936 c-2 -2 -42 -12 -89 -21 -326 -65 -673 -242 -916 -468 -34
-31 -64 -57 -66 -57 -3 0 -126 124 -273 275 l-267 275 808 0 c444 0 805 -2
803 -4z m2182 -23 c-11 -16 -132 -140 -270 -278 l-251 -250 -52 51 c-232 225
-563 398 -913 478 l-110 25 808 0 808 1 -20 -27z m-3323 -605 c-233 -264 -383
-561 -458 -905 l-19 -88 0 805 -1 805 272 -272 271 -271 -65 -74z m1416 565
c-8 -27 -101 -322 -208 -658 l-193 -610 -84 0 -84 0 -375 377 -374 378 34 36
c53 55 175 151 275 217 279 182 646 300 957 306 l67 1 -15 -47z m258 32 c352
-46 657 -176 943 -400 44 -35 98 -82 120 -104 l39 -41 -193 -194 -193 -193
-77 -6 c-151 -12 -321 -73 -452 -161 -29 -20 -56 -32 -60 -28 -4 4 -84 257
-179 562 -95 305 -175 561 -178 568 -6 17 87 16 230 -3z m1688 -802 c0 -449
-2 -814 -5 -812 -2 3 -15 57 -29 120 -73 345 -250 688 -475 922 l-46 47 270
270 c148 149 273 270 277 270 5 0 8 -368 8 -817z m-2896 -128 l368 -375 -598
-2 -598 -3 400 -295 399 -295 -444 -3 c-245 -1 -449 2 -453 6 -5 5 -4 65 1
133 31 378 158 718 380 1017 62 83 158 192 170 192 4 0 173 -169 375 -375z
m2382 313 c140 -152 277 -374 356 -578 45 -115 45 -110 -2 -110 -39 0 -47 5
-118 78 -164 166 -378 270 -599 289 l-72 6 182 188 c100 103 185 188 188 189
4 0 33 -28 65 -62z m-536 -395 c-30 -32 -107 -111 -170 -175 l-115 -118 -87 0
-87 0 -22 70 -21 70 -28 -20 c-38 -27 -115 -113 -160 -180 -346 -510 -129
-1209 443 -1430 97 -38 278 -71 285 -52 2 6 8 9 14 6 6 -4 5 -9 -3 -15 -10 -6
-7 -10 11 -18 14 -5 110 -95 215 -200 l189 -190 -29 -32 c-48 -51 -199 -169
-206 -161 -3 4 -14 30 -24 57 -54 151 -162 313 -292 436 -359 342 -880 416
-1323 188 -52 -27 -125 -71 -162 -99 -95 -72 -235 -224 -291 -317 -52 -87
-121 -237 -115 -253 2 -6 247 170 546 390 298 220 544 400 547 400 3 0 5 -263
5 -585 l0 -585 -45 0 c-72 0 -231 19 -339 41 -233 47 -505 165 -694 303 -65
47 -214 170 -236 195 l-20 22 199 199 c110 110 201 197 203 195 2 -2 -26 -95
-63 -207 -38 -112 -70 -210 -72 -218 -3 -8 14 18 36 59 274 488 839 720 1370
561 l64 -19 -39 31 c-160 128 -284 326 -336 538 -28 114 -30 311 -4 425 35
153 106 297 212 427 55 67 122 125 137 120 5 -1 39 18 77 43 133 88 309 149
445 154 l39 1 -54 -57z m275 38 c165 -34 318 -114 453 -236 115 -105 162 -95
-460 -95 l-543 0 175 175 175 175 55 0 c30 0 96 -9 145 -19z m679 -402 c22
-82 47 -201 43 -206 -2 -2 -12 18 -22 44 -9 27 -35 79 -58 117 l-40 69 23 19
c12 10 25 18 29 18 4 0 15 -28 25 -61z m-29 -99 c47 -93 83 -216 97 -326 6
-52 9 -96 6 -99 -3 -3 -207 -4 -453 -3 l-449 3 365 267 364 268 19 -23 c10
-12 33 -51 51 -87z m-2637 -545 c78 -58 142 -110 142 -117 0 -7 -51 -164 -113
-349 l-112 -336 -213 -219 -214 -219 -64 70 c-281 303 -457 734 -488 1188 l-6
87 463 0 463 0 142 -105z m2738 38 c-37 -363 -258 -667 -588 -805 -85 -36
-230 -68 -309 -68 -86 0 -88 4 -214 388 -106 323 -109 332 -90 346 11 8 79 57
150 110 l130 95 464 1 463 0 -6 -67z m19 -1842 c-3 -3 -128 117 -277 266
l-271 272 65 73 c231 260 390 574 458 906 11 55 21 104 22 109 2 4 4 -358 5
-806 2 -448 1 -817 -2 -820z m-3794 1441 c77 -314 219 -583 437 -830 l65 -74
-271 -271 -272 -272 1 810 c1 446 4 799 6 785 2 -14 17 -81 34 -148z m3721 18
c-71 -280 -193 -526 -372 -749 -42 -53 -88 -106 -101 -118 l-25 -22 -188 188
-188 188 74 6 c238 21 490 151 643 335 65 77 123 173 157 255 33 83 33 49 0
-83z m-1284 -702 c293 -219 530 -402 527 -408 -11 -18 -190 -124 -285 -168
-226 -106 -541 -182 -755 -182 l-45 0 0 586 c0 465 3 584 13 578 6 -4 252
-187 545 -406z m-1871 -278 c30 -28 79 -70 109 -93 30 -23 54 -49 54 -57 -1
-8 -7 -42 -15 -75 -8 -33 -18 -108 -22 -167 l-6 -108 -361 0 -360 0 39 43 c59
63 499 507 504 507 2 0 28 -23 58 -50z m2945 -217 c148 -148 268 -271 268
-275 0 -5 -164 -8 -364 -8 l-363 0 -6 98 c-3 53 -13 133 -22 177 l-17 80 33
25 c19 14 70 57 114 97 44 39 82 72 85 72 3 1 125 -119 272 -266z m-2721 39
c48 -38 216 -131 304 -170 122 -53 261 -98 392 -127 l108 -23 -442 -1 -443 -1
0 63 c1 106 31 277 49 277 5 0 19 -8 32 -18z m2224 -103 c8 -52 15 -122 15
-156 l0 -63 -437 1 -438 1 106 23 c224 50 486 158 664 273 43 28 62 35 67 27
4 -7 14 -55 23 -106z"/>
<path d="M25195 3939 c123 -99 244 -243 323 -384 19 -33 32 -53 29 -45 -2 8
-34 106 -71 218 -67 199 -68 202 -96 202 -27 0 -158 23 -204 35 -14 4 -7 -5
19 -26z"/>
<path d="M7375 2909 c-211 -31 -433 -156 -551 -312 -112 -149 -161 -309 -150
-497 7 -130 25 -202 76 -306 98 -200 276 -323 699 -483 354 -134 393 -152 485
-225 62 -49 133 -159 162 -250 29 -91 36 -230 15 -320 -40 -170 -155 -280
-341 -327 -78 -20 -278 -17 -360 5 -280 76 -495 319 -617 698 l-38 117 -83 1
-84 0 6 -92 c3 -51 8 -203 11 -338 3 -135 8 -307 11 -382 l7 -138 81 0 81 0
30 56 c17 30 35 60 41 65 7 6 44 -7 105 -35 113 -54 243 -98 359 -123 104 -22
373 -25 465 -5 306 66 536 236 655 484 54 112 72 204 72 358 -1 390 -183 593
-722 804 -284 112 -326 129 -413 172 -110 54 -179 107 -239 187 -69 89 -93
166 -93 297 0 98 2 110 32 173 84 178 279 276 493 248 238 -30 393 -149 516
-393 40 -80 121 -306 139 -385 l7 -33 82 0 83 0 -4 243 c-2 133 -6 342 -9 465
l-6 222 -77 0 -77 0 -38 -65 c-21 -36 -40 -65 -44 -65 -3 0 -54 25 -112 55
-229 117 -434 156 -655 124z"/>
<path d="M380 2786 l0 -73 54 -6 c84 -8 211 -46 260 -77 88 -56 81 43 84
-1163 2 -766 -1 -1080 -9 -1110 -15 -56 -73 -111 -133 -126 -26 -6 -94 -17
-151 -23 l-105 -11 0 -69 0 -68 1165 0 1165 0 0 33 c0 37 36 608 46 715 l6 72
-75 0 c-73 0 -75 -1 -82 -27 -11 -47 -111 -249 -176 -358 -118 -198 -161 -230
-361 -261 -138 -22 -627 -15 -704 9 -99 32 -138 86 -155 215 -6 45 -9 260 -7
522 l3 445 155 3 c178 4 325 -11 385 -37 111 -49 182 -169 218 -367 l13 -69
72 -3 72 -3 0 546 0 545 -75 0 c-72 0 -75 -1 -75 -24 0 -13 -11 -63 -25 -111
-40 -139 -84 -212 -155 -259 -71 -47 -133 -56 -372 -56 l-218 0 0 555 0 555
308 0 c362 0 475 -10 549 -45 99 -49 250 -239 315 -397 l32 -78 73 0 73 0 0
340 0 340 -1085 0 -1085 0 0 -74z"/>
<path d="M3130 2785 c0 -73 1 -75 24 -75 14 0 62 -12 108 -26 216 -68 309
-153 352 -321 14 -53 16 -168 16 -889 0 -861 -4 -960 -42 -1062 -32 -87 -77
-125 -188 -160 -52 -17 -123 -36 -157 -42 l-63 -13 0 -68 0 -69 570 0 570 0 0
68 0 67 -133 32 c-227 56 -282 100 -326 260 -35 130 -42 333 -39 1108 l3 720
845 -1142 845 -1142 87 -1 87 0 4 1153 c3 1014 6 1162 20 1232 22 109 62 184
112 212 46 25 197 71 270 81 l50 7 3 73 3 72 -571 0 -570 0 0 -75 c0 -74 0
-75 26 -75 35 0 170 -35 255 -67 90 -33 131 -74 158 -157 43 -133 44 -142 48
-966 l4 -795 -93 126 c-51 69 -406 549 -788 1067 l-694 942 -398 0 -398 0 0
-75z"/>
</g>
</svg>
