<?xml version="1.0" standalone="no"?>
<!DOCTYPE svg PUBLIC "-//W3C//DTD SVG 20010904//EN"
 "http://www.w3.org/TR/2001/REC-SVG-20010904/DTD/svg10.dtd">
<svg version="1.0" xmlns="http://www.w3.org/2000/svg"
 width="720.000000pt" height="170.000000pt" viewBox="0 0 720.000000 170.000000"
 preserveAspectRatio="xMidYMid meet">

<g transform="translate(0.000000,170.000000) scale(0.100000,-0.100000)"
fill="#000000" stroke="none">
<path d="M927 1188 c-71 -124 -95 -174 -87 -182 13 -12 18 -6 62 68 l28 46 84
0 85 0 34 -57 c28 -49 38 -58 65 -61 21 -2 32 1 32 10 0 18 -183 341 -195 345
-6 2 -54 -74 -108 -169z m120 30 c15 -29 29 -56 31 -60 2 -5 -26 -8 -62 -8
-36 0 -66 3 -66 6 0 9 61 114 66 114 2 0 16 -24 31 -52z"/>
<path d="M1425 1351 c-109 -28 -175 -117 -155 -207 12 -54 39 -85 100 -116 73
-38 164 -39 236 -3 56 28 84 62 59 71 -9 4 -23 -3 -35 -19 -11 -13 -39 -32
-62 -42 -63 -25 -120 -13 -171 34 -37 35 -41 43 -44 97 -3 46 0 66 16 91 50
80 180 97 246 33 23 -22 39 -31 51 -26 15 6 15 8 -2 27 -46 51 -162 80 -239
60z"/>
<path d="M4270 1190 c-52 -93 -94 -173 -92 -177 6 -20 27 -3 56 47 l32 55 90
3 89 3 30 -56 c30 -55 57 -74 90 -61 13 5 11 14 -15 58 -17 29 -60 108 -97
176 -36 67 -71 122 -77 122 -6 0 -54 -77 -106 -170z m129 13 l30 -53 -70 0
c-39 0 -69 3 -67 8 19 44 63 111 69 105 4 -5 21 -32 38 -60z"/>
<path d="M6299 1346 c-65 -23 -107 -55 -128 -100 -35 -71 -22 -138 37 -188 56
-47 110 -61 214 -56 51 3 105 10 121 16 26 11 27 14 27 87 l0 75 -75 0 c-43 0
-75 -4 -75 -10 0 -5 18 -10 40 -10 l40 0 0 -60 c0 -56 -2 -61 -26 -70 -41 -16
-112 -11 -154 10 -57 29 -85 74 -85 137 0 83 56 142 144 151 60 5 102 -10 135
-48 16 -19 27 -25 37 -19 11 6 8 14 -15 38 -52 54 -158 75 -237 47z"/>
<path d="M290 1175 c0 -137 3 -176 13 -173 8 3 13 45 17 142 l5 137 84 -135
c46 -75 87 -138 91 -141 5 -3 46 57 92 132 l83 138 5 -135 5 -135 33 -3 32 -3
0 176 0 176 -36 -3 c-35 -3 -39 -8 -112 -130 -43 -71 -81 -123 -86 -118 -5 5
-41 62 -81 127 -69 113 -73 118 -108 121 l-37 3 0 -176z"/>
<path d="M1762 1178 l3 -173 35 0 35 0 3 83 3 82 99 0 100 0 0 -85 0 -85 35 0
35 0 0 175 0 175 -35 0 -35 0 0 -80 0 -80 -100 0 -100 0 0 80 0 80 -40 0 -40
0 2 -172z"/>
<path d="M2232 1178 l3 -173 35 0 35 0 3 173 2 172 -40 0 -40 0 2 -172z"/>
<path d="M2430 1175 c0 -149 2 -175 15 -175 13 0 15 21 15 128 0 71 3 132 6
135 4 4 70 -54 147 -128 76 -74 143 -135 148 -135 5 0 9 79 9 175 0 149 -2
175 -15 175 -12 0 -15 -20 -15 -120 0 -66 -3 -120 -7 -120 -5 1 -64 55 -133
120 -83 80 -133 120 -147 120 -23 0 -23 0 -23 -175z"/>
<path d="M2900 1175 l0 -176 142 3 c102 2 143 6 146 16 3 9 -23 12 -107 12
l-111 0 0 75 0 75 70 0 c56 0 70 3 70 15 0 12 -14 15 -70 15 l-70 0 0 60 0 60
110 0 c67 0 110 4 110 10 0 6 -55 10 -145 10 l-145 0 0 -175z"/>
<path d="M3490 1175 l0 -176 137 3 c98 2 138 6 141 16 3 9 -22 12 -102 12
l-106 0 0 160 0 160 -35 0 -35 0 0 -175z"/>
<path d="M3842 1178 l3 -173 139 0 c101 0 140 3 143 12 3 9 -24 13 -104 15
l-108 3 -3 73 -3 72 76 0 c60 0 75 3 75 15 0 12 -15 15 -75 15 l-76 0 3 58 3
57 108 3 c163 4 132 22 -38 22 l-145 0 2 -172z"/>
<path d="M4640 1175 l0 -176 33 3 32 3 3 75 c2 41 7 79 11 83 18 18 50 -5 116
-83 60 -70 72 -80 101 -80 33 0 52 14 35 24 -5 3 -37 37 -71 76 -54 60 -59 71
-43 77 10 3 31 15 46 26 24 16 28 25 25 60 -5 66 -35 81 -174 85 l-114 4 0
-177z m173 144 c29 -13 50 -54 42 -80 -9 -27 -56 -49 -105 -49 l-40 0 0 63 c0
35 3 67 7 70 10 11 70 8 96 -4z"/>
<path d="M5052 1178 c3 -146 5 -173 18 -173 12 0 16 24 20 132 l5 132 140
-134 c77 -74 146 -134 153 -135 9 0 12 41 12 175 0 149 -2 175 -15 175 -12 0
-15 -20 -15 -120 0 -66 -3 -120 -7 -120 -5 0 -66 54 -137 120 -90 84 -136 120
-153 120 l-23 0 2 -172z"/>
<path d="M5522 1178 l3 -173 33 -3 32 -3 0 175 0 176 -35 0 -35 0 2 -172z"/>
<path d="M5722 1178 c2 -124 6 -172 15 -175 9 -3 13 30 15 132 l3 136 142
-136 c78 -74 146 -135 152 -135 8 0 11 56 11 175 0 149 -2 175 -15 175 -13 0
-15 -20 -15 -121 0 -68 -4 -119 -9 -117 -5 2 -66 56 -135 121 -75 69 -134 117
-146 117 -20 0 -20 -5 -18 -172z"/>
<path d="M6795 958 c-60 -53 -152 -167 -195 -242 -27 -48 -35 -56 -53 -50 -31
9 -31 8 3 42 32 33 36 51 19 84 -19 35 -70 48 -194 48 l-115 0 0 -170 0 -170
108 0 c60 0 112 -3 115 -6 3 -4 2 -14 -3 -24 -5 -9 -18 -40 -29 -69 -16 -39
-18 -51 -7 -51 7 0 31 44 55 103 84 203 190 366 311 481 50 46 65 66 52 66
-11 0 -41 -19 -67 -42z m-315 -163 c11 -10 20 -31 20 -46 0 -41 -32 -59 -107
-59 l-63 0 0 66 0 67 65 -6 c43 -3 73 -11 85 -22z m-28 -135 c48 -14 68 -34
68 -70 0 -43 -35 -62 -117 -63 l-68 -2 -3 73 -3 72 43 0 c24 0 60 -5 80 -10z"/>
<path d="M904 884 c-23 -26 -50 -62 -60 -80 -10 -19 -21 -34 -24 -34 -3 0 -16
20 -30 45 -15 27 -32 45 -42 45 -10 0 -18 -2 -18 -5 0 -10 74 -135 80 -135 3
0 18 25 34 56 16 30 49 78 74 105 24 27 40 49 36 49 -4 0 -26 -21 -50 -46z"/>
<path d="M1455 863 c-57 -15 -61 -58 -7 -79 86 -34 85 -33 72 -49 -14 -17 -62
-20 -93 -4 -21 10 -21 10 -3 -5 38 -31 126 -14 126 23 0 24 -17 37 -65 53 -24
8 -41 20 -43 32 -3 16 2 18 47 15 27 -2 47 -1 43 3 -11 10 -55 17 -77 11z"/>
<path d="M1785 863 c-33 -8 -65 -44 -65 -74 0 -35 27 -67 65 -74 27 -6 28 -5
10 6 -29 18 -35 30 -35 71 0 30 6 41 26 55 23 15 29 15 52 2 14 -8 29 -25 32
-39 9 -34 -8 -78 -32 -86 -11 -3 -17 -8 -14 -11 9 -10 66 19 76 38 33 62 -38
131 -115 112z"/>
<path d="M311 816 c-15 -61 -15 -63 14 -68 36 -7 67 18 63 50 -2 21 -9 28 -30
30 -19 2 -25 8 -21 18 3 8 1 14 -5 14 -5 0 -15 -20 -21 -44z m54 -27 c0 -17
-6 -25 -22 -27 -17 -3 -23 2 -23 15 0 22 20 45 35 40 5 -2 10 -15 10 -28z"/>
<path d="M632 838 c8 -12 27 -44 42 -71 27 -45 47 -54 45 -19 -1 33 -54 107
-79 110 -22 4 -23 3 -8 -20z"/>
<path d="M932 791 c-23 -39 -37 -71 -33 -71 5 0 19 20 32 45 13 25 27 45 31
45 5 0 17 -20 29 -45 14 -30 28 -45 40 -45 10 0 19 3 19 6 0 5 -68 124 -75
132 -1 2 -21 -29 -43 -67z"/>
<path d="M1081 803 c57 -101 51 -95 69 -65 55 90 71 122 62 122 -5 0 -15 -12
-21 -27 -6 -16 -20 -38 -29 -51 l-18 -23 -28 50 c-19 35 -33 51 -47 51 -19 0
-18 -4 12 -57z"/>
<path d="M1250 790 c0 -61 2 -70 18 -70 15 0 18 6 14 30 -4 29 -3 30 39 31
l44 2 -40 6 c-34 5 -40 10 -43 33 -3 26 -1 27 50 31 50 3 50 3 -14 5 l-68 2 0
-70z"/>
<path d="M1588 853 l32 -4 0 -65 c0 -50 3 -64 15 -64 12 0 15 14 15 64 l0 65
33 4 c17 2 -4 4 -48 4 -44 0 -65 -2 -47 -4z"/>
<path d="M1952 788 c1 -56 2 -62 5 -25 2 26 6 47 9 47 3 0 34 -20 68 -45 35
-25 66 -45 70 -45 3 0 5 33 4 73 -1 55 -2 61 -5 25 -2 -27 -9 -48 -14 -48 -6
0 -37 20 -69 45 -32 25 -61 45 -64 45 -3 0 -5 -33 -4 -72z"/>
<path d="M2170 790 c0 -56 3 -70 15 -70 10 0 15 10 15 30 0 28 2 30 43 31 l42
2 -40 6 c-34 5 -40 10 -43 33 -3 26 -1 27 50 31 50 3 50 3 -14 5 l-68 2 0 -70z"/>
<path d="M2998 820 c-31 -31 -33 -54 -14 -115 6 -16 -2 -25 -40 -44 -79 -42
-97 -125 -34 -159 33 -17 135 -11 181 12 35 17 38 17 70 -3 45 -27 108 -27
143 0 34 27 37 58 4 35 -32 -23 -73 -20 -103 7 l-27 22 21 26 c27 35 43 77 31
84 -5 3 -16 -7 -24 -22 -7 -16 -23 -37 -35 -47 -21 -19 -22 -19 -52 10 -53 51
-55 61 -9 84 53 27 74 59 61 93 -13 34 -40 47 -96 47 -38 0 -52 -5 -77 -30z
m127 -24 c9 -25 6 -31 -23 -57 -18 -16 -36 -29 -41 -29 -10 0 -31 46 -31 70 0
53 77 67 95 16z m-67 -192 l43 -55 -35 -14 c-43 -18 -60 -19 -89 -4 -28 15
-37 28 -37 55 0 28 37 74 58 73 9 0 36 -25 60 -55z"/>
<path d="M4178 727 c-37 -67 -81 -146 -98 -174 -28 -48 -29 -53 -11 -53 13 0
29 18 50 55 l31 55 89 0 89 0 31 -55 c29 -51 34 -55 67 -55 l36 0 -47 88
c-102 188 -147 262 -158 262 -7 0 -42 -55 -79 -123z m100 -27 l33 -60 -71 0
c-39 0 -70 3 -68 8 13 30 62 112 67 112 4 0 21 -27 39 -60z"/>
<path d="M4888 698 c-117 -208 -112 -198 -91 -198 12 0 29 19 48 55 l30 55 90
0 91 0 29 -55 c28 -52 32 -55 68 -55 l38 0 -36 63 c-19 34 -63 113 -97 175
-34 61 -66 112 -73 112 -6 0 -50 -69 -97 -152z m115 7 c15 -31 27 -58 27 -60
0 -3 -29 -5 -65 -5 -36 0 -65 3 -65 6 0 12 61 114 69 114 4 0 19 -25 34 -55z"/>
<path d="M5930 753 c-30 -54 -73 -131 -97 -171 -24 -41 -43 -76 -43 -78 0 -2
8 -4 19 -4 12 0 28 18 47 55 l29 55 90 0 91 0 29 -55 c28 -52 32 -55 68 -55
l39 0 -25 43 c-13 23 -57 102 -96 175 -40 72 -79 132 -85 132 -7 0 -37 -44
-66 -97z m85 -53 c14 -27 25 -52 25 -55 0 -3 -29 -5 -65 -5 -36 0 -65 3 -65 6
0 18 63 113 71 108 5 -3 21 -27 34 -54z"/>
<path d="M3620 669 l0 -171 128 4 c113 3 132 6 172 28 67 38 93 82 88 153 -4
46 -10 63 -34 88 -52 56 -94 69 -231 69 l-123 0 0 -171z m233 123 c49 -28 72
-67 72 -122 0 -86 -57 -136 -169 -147 l-66 -6 0 145 c0 80 3 148 8 152 12 13
123 -3 155 -22z"/>
<path d="M4435 830 c3 -5 37 -10 76 -10 l69 0 0 -160 0 -160 40 0 40 0 0 160
0 160 69 0 c39 0 73 5 76 10 4 7 -60 10 -185 10 -125 0 -189 -3 -185 -10z"/>
<path d="M5470 670 l0 -170 140 0 c87 0 140 4 140 10 0 6 -42 10 -105 10
l-105 0 0 160 0 160 -35 0 -35 0 0 -170z"/>
<path d="M421 783 c0 -30 -6 -53 -13 -56 -7 -3 -8 -6 -3 -6 6 0 15 3 20 7 16
11 67 93 62 99 -3 3 -13 -7 -22 -21 -22 -33 -33 -33 -38 2 -2 15 -5 4 -6 -25z"/>
</g>
</svg>
